<?xml version="1.0" encoding="iso-8859-1"?>
<!-- Generator: Adobe Illustrator 18.0.0, SVG Export Plug-In . SVG Version: 6.00 Build 0)  -->
<!DOCTYPE svg PUBLIC "-//W3C//DTD SVG 1.1//EN" "http://www.w3.org/Graphics/SVG/1.1/DTD/svg11.dtd">
<svg version="1.1" id="Capa_1" xmlns="http://www.w3.org/2000/svg" xmlns:xlink="http://www.w3.org/1999/xlink" x="0px" y="0px"
	 viewBox="0 0 202.992 202.992" style="enable-background:new 0 0 202.992 202.992;" xml:space="preserve">
<path d="M202.992,92.416c0-12.771-6.734-24.63-17.46-31.262c-3.412-16.995-18.213-29.35-35.979-29.35
	c-4.636,0-9.185,0.869-13.441,2.546c-6.896-8.36-17.212-13.333-28.313-13.333c-7.503,0-14.712,2.264-20.797,6.46
	c-4.945-2.394-10.368-3.64-15.949-3.64c-12.954,0-24.903,6.881-31.485,17.833C16.746,46.337,0,66.537,0,90.215
	c0,27.331,22.235,49.566,49.566,49.566c5.154,0,10.171-0.772,14.984-2.302c6.809,9.54,17.912,15.415,29.9,15.415
	c2.389,0,4.756-0.229,7.078-0.683l28.133,27.615c1.402,1.376,3.289,2.147,5.254,2.147h20c3.869,0,7.103-2.942,7.467-6.794
	l2.586-27.359c19.221-1.148,34.508-17.149,34.508-36.653c0-0.946-0.037-1.897-0.111-2.848
	C201.744,103.375,202.992,97.926,202.992,92.416z M185.146,103.155c-0.832,1.458-1.151,3.152-0.906,4.813
	c0.157,1.062,0.236,2.138,0.236,3.2c0,11.976-9.743,21.719-21.719,21.719c-1.145,0-2.293-0.09-3.414-0.268
	c-2.048-0.322-4.133,0.213-5.77,1.482c-1.636,1.27-2.674,3.158-2.869,5.22l-2.613,27.653h-10.11l-28.976-28.442
	c-2.012-1.975-4.963-2.657-7.636-1.759c-2.222,0.744-4.55,1.121-6.919,1.121c-8.535,0-16.313-5.037-19.816-12.832
	c-0.829-1.846-2.369-3.277-4.271-3.972c-1.898-0.693-3.999-0.59-5.824,0.289c-4.688,2.257-9.726,3.401-14.975,3.401
	C30.507,124.781,15,109.274,15,90.215c0-17.457,13.05-32.203,30.355-34.301c2.597-0.314,4.841-1.959,5.924-4.339
	c3.521-7.737,11.282-12.737,19.773-12.737c4.447,0,8.723,1.337,12.363,3.866c2.92,2.029,6.863,1.728,9.441-0.719
	c4.056-3.849,9.362-5.968,14.941-5.968c8.05,0,15.403,4.424,19.191,11.545c0.989,1.858,2.713,3.217,4.751,3.741
	c2.037,0.524,4.203,0.169,5.968-0.98c3.53-2.302,7.626-3.519,11.845-3.519c11.157,0,20.658,8.694,21.63,19.795
	c0.233,2.663,1.867,5.002,4.288,6.137c7.606,3.566,12.521,11.29,12.521,19.68C187.992,96.18,187.008,99.894,185.146,103.155z"/>
<g>
</g>
<g>
</g>
<g>
</g>
<g>
</g>
<g>
</g>
<g>
</g>
<g>
</g>
<g>
</g>
<g>
</g>
<g>
</g>
<g>
</g>
<g>
</g>
<g>
</g>
<g>
</g>
<g>
</g>
</svg>
